<mxfile host="app.diagrams.net" agent="Mozilla/5.0 (Windows NT 10.0; Win64; x64) AppleWebKit/537.36 (KHTML, like Gecko) Chrome/139.0.0.0 Safari/537.36" version="28.0.9">
  <diagram name="Page-1" id="7rDmoMbXkHjPUN7BBAz_">
    <mxGraphModel dx="915" dy="457" grid="1" gridSize="10" guides="1" tooltips="1" connect="1" arrows="1" fold="1" page="1" pageScale="1" pageWidth="827" pageHeight="1169" math="0" shadow="0">
      <root>
        <mxCell id="0" />
        <mxCell id="1" parent="0" />
        <mxCell id="w6fMAn-6YOlrK-oEtjyD-25" value="" style="group" vertex="1" connectable="0" parent="1">
          <mxGeometry x="230" y="120" width="245" height="440" as="geometry" />
        </mxCell>
        <mxCell id="w6fMAn-6YOlrK-oEtjyD-1" value="" style="rounded=0;whiteSpace=wrap;html=1;" vertex="1" parent="w6fMAn-6YOlrK-oEtjyD-25">
          <mxGeometry x="5" width="240" height="440" as="geometry" />
        </mxCell>
        <mxCell id="w6fMAn-6YOlrK-oEtjyD-2" value="CONV.IO" style="text;html=1;align=center;verticalAlign=middle;whiteSpace=wrap;rounded=0;fontSize=23;" vertex="1" parent="w6fMAn-6YOlrK-oEtjyD-25">
          <mxGeometry width="135" height="40" as="geometry" />
        </mxCell>
        <mxCell id="w6fMAn-6YOlrK-oEtjyD-21" value="" style="group" vertex="1" connectable="0" parent="w6fMAn-6YOlrK-oEtjyD-25">
          <mxGeometry x="47.5" y="60" width="155" height="30" as="geometry" />
        </mxCell>
        <mxCell id="w6fMAn-6YOlrK-oEtjyD-5" value="" style="rounded=1;whiteSpace=wrap;html=1;" vertex="1" parent="w6fMAn-6YOlrK-oEtjyD-21">
          <mxGeometry width="155" height="30" as="geometry" />
        </mxCell>
        <mxCell id="w6fMAn-6YOlrK-oEtjyD-20" value="" style="group" vertex="1" connectable="0" parent="w6fMAn-6YOlrK-oEtjyD-21">
          <mxGeometry x="42.5" width="70" height="30" as="geometry" />
        </mxCell>
        <mxCell id="w6fMAn-6YOlrK-oEtjyD-6" value="Select File" style="text;html=1;align=center;verticalAlign=middle;whiteSpace=wrap;rounded=0;" vertex="1" parent="w6fMAn-6YOlrK-oEtjyD-20">
          <mxGeometry x="10" width="60" height="30" as="geometry" />
        </mxCell>
        <mxCell id="w6fMAn-6YOlrK-oEtjyD-17" value="" style="shape=cross;whiteSpace=wrap;html=1;fillStyle=solid;fillColor=light-dark(#FFFFFF,#FFFFFF);size=0;" vertex="1" parent="w6fMAn-6YOlrK-oEtjyD-20">
          <mxGeometry y="11.25" width="7.5" height="7.5" as="geometry" />
        </mxCell>
        <mxCell id="w6fMAn-6YOlrK-oEtjyD-22" value="History" style="text;html=1;align=center;verticalAlign=middle;whiteSpace=wrap;rounded=0;" vertex="1" parent="w6fMAn-6YOlrK-oEtjyD-25">
          <mxGeometry x="10" y="110" width="60" height="30" as="geometry" />
        </mxCell>
        <mxCell id="w6fMAn-6YOlrK-oEtjyD-26" value="" style="rounded=1;whiteSpace=wrap;html=1;" vertex="1" parent="w6fMAn-6YOlrK-oEtjyD-25">
          <mxGeometry x="15" y="140" width="223" height="30" as="geometry" />
        </mxCell>
        <mxCell id="w6fMAn-6YOlrK-oEtjyD-27" value="" style="rounded=1;whiteSpace=wrap;html=1;" vertex="1" parent="w6fMAn-6YOlrK-oEtjyD-25">
          <mxGeometry x="15" y="180" width="223" height="30" as="geometry" />
        </mxCell>
        <mxCell id="w6fMAn-6YOlrK-oEtjyD-28" value="" style="rounded=1;whiteSpace=wrap;html=1;" vertex="1" parent="w6fMAn-6YOlrK-oEtjyD-25">
          <mxGeometry x="15" y="220" width="223" height="30" as="geometry" />
        </mxCell>
        <mxCell id="w6fMAn-6YOlrK-oEtjyD-29" value="" style="rounded=1;whiteSpace=wrap;html=1;" vertex="1" parent="w6fMAn-6YOlrK-oEtjyD-25">
          <mxGeometry x="15" y="260" width="223" height="30" as="geometry" />
        </mxCell>
        <mxCell id="w6fMAn-6YOlrK-oEtjyD-30" value="" style="rounded=1;whiteSpace=wrap;html=1;" vertex="1" parent="w6fMAn-6YOlrK-oEtjyD-25">
          <mxGeometry x="15" y="300" width="223" height="30" as="geometry" />
        </mxCell>
        <mxCell id="w6fMAn-6YOlrK-oEtjyD-31" value="" style="rounded=1;whiteSpace=wrap;html=1;" vertex="1" parent="w6fMAn-6YOlrK-oEtjyD-25">
          <mxGeometry x="15" y="340" width="223" height="30" as="geometry" />
        </mxCell>
        <mxCell id="w6fMAn-6YOlrK-oEtjyD-32" value="" style="rounded=1;whiteSpace=wrap;html=1;" vertex="1" parent="w6fMAn-6YOlrK-oEtjyD-25">
          <mxGeometry x="15" y="380" width="223" height="30" as="geometry" />
        </mxCell>
      </root>
    </mxGraphModel>
  </diagram>
</mxfile>
